<?xml version="1.0" ?><!-- Uploaded to: SVG Repo, www.svgrepo.com, Generator: SVG Repo Mixer Tools -->
<svg width="800px" height="800px" viewBox="0 0 24 24" fill="none" xmlns="http://www.w3.org/2000/svg"><path d="M16 20H19C20.1046 20 21 19.1046 21 18V13M16 20H8H5C3.89543 20 3 19.1046 3 18V16V15M16 20C15.4421 18.8842 13.5695 17.0214 9.87201 15.9119M21 13V8C21 6.89543 20.1046 6 19 6H16M21 13C17.9242 12.8817 12.6653 13.4351 9.87201 15.9119M3 15V8C3 6.89543 3.89543 6 5 6H8M3 15C5.77637 15 8.04658 15.3641 9.87201 15.9119M8 6L10.5858 3.41421C11.3668 2.63316 12.6332 2.63317 13.4142 3.41421L16 6M8 6H16M7.5 9C7 9 6 9.3 6 10.5C6 11.7 7 12 7.5 12C8 12 9 11.7 9 10.5C9 9.3 8 9 7.5 9Z" stroke="#000000" stroke-linecap="round" stroke-linejoin="round" stroke-width="2"/></svg>